<?xml version="1.0" encoding="utf-8"?>
<!-- Generator: Adobe Illustrator 16.0.0, SVG Export Plug-In . SVG Version: 6.00 Build 0)  -->
<!DOCTYPE svg PUBLIC "-//W3C//DTD SVG 1.1//EN" "http://www.w3.org/Graphics/SVG/1.1/DTD/svg11.dtd">
<svg version="1.1" id="图层_1" xmlns="http://www.w3.org/2000/svg" xmlns:xlink="http://www.w3.org/1999/xlink" x="0px" y="0px"
	 width="24px" height="12px" viewBox="0 0 24 12" enable-background="new 0 0 24 12" xml:space="preserve">
<g>
	<path fill="#946BB5" d="M24,6c0-3.094-2.688-5.567-5.965-5.567c-0.514,0-1.035,0.113-1.565,0.323c-1.05,0.416-2.11,1.2-3.18,2.247
		C12.833,3.45,12.401,3.921,12,4.396c-0.402-0.475-0.835-0.946-1.291-1.394c-1.068-1.047-2.13-1.83-3.18-2.247
		c-0.53-0.21-1.052-0.323-1.564-0.323C2.688,0.433,0,2.906,0,6s2.688,5.566,5.965,5.566c0.513,0,1.034-0.112,1.564-0.323
		c1.05-0.416,2.111-1.199,3.18-2.247C11.166,8.55,11.598,8.078,12,7.604c0.401,0.476,0.834,0.946,1.29,1.394
		c1.067,1.048,2.13,1.831,3.18,2.247c0.53,0.211,1.054,0.324,1.565,0.324C21.313,11.566,24,9.094,24,6z M10.678,6.084
		c-0.418,0.51-0.877,1.02-1.36,1.492c-0.896,0.879-1.763,1.52-2.521,1.818C6.487,9.52,6.208,9.579,5.965,9.579
		C3.751,9.579,1.988,7.957,1.988,6c0-1.958,1.763-3.579,3.977-3.579c0.243,0,0.522,0.06,0.831,0.183
		c0.759,0.301,1.626,0.941,2.521,1.819c0.483,0.474,0.942,0.983,1.36,1.493C10.701,5.944,10.724,5.972,10.746,6
		C10.724,6.027,10.701,6.056,10.678,6.084z M18.035,9.579c-0.244,0-0.523-0.062-0.832-0.185c-0.758-0.3-1.626-0.939-2.521-1.818
		C14.2,7.104,13.74,6.594,13.323,6.084L13.253,6c0.022-0.028,0.046-0.056,0.069-0.084c0.417-0.51,0.877-1.02,1.359-1.493
		c0.896-0.878,1.764-1.519,2.521-1.819c0.309-0.123,0.588-0.183,0.832-0.183c2.213,0,3.977,1.621,3.977,3.579
		C22.012,7.957,20.248,9.579,18.035,9.579z"/>
	<path fill="#946BB5" d="M18.035,11.566L18.035,11.566L18.035,11.566z"/>
</g>
</svg>
